<?xml version="1.0" encoding="UTF-8"?><svg id="Ebene_1" xmlns="http://www.w3.org/2000/svg" viewBox="0 0 512 512"><defs><style>.cls-1{fill:#f7b033;}.cls-2{fill:#ffc71a;}.cls-3{fill:#8cab26;}.cls-4{fill:#bd1721;}.cls-5{fill:#402e42;}.cls-6{fill:#94bf1f;}.cls-7{fill:#3ba836;}</style></defs><path class="cls-4" d="m247.06,147.78s16.53-1.2,18.78-.62c2.25.58,6.64.27,10.99,7.47,4.36,7.2,11.66,29.65,14.82,34.07,3.15,4.42,8.3,15.37,8.58,18.85.29,3.48,2.17,14.69,5.36,25.46,3.19,10.79,7.74,17.73,8.49,31.26.75,13.53,2.46,22.03,2.16,32.3-.3,10.28.15,23.28-5.26,35.91-5.41,12.62-11.72,24.47-15.73,38.93-4,14.46-5.49,14.34-4.94,24.26.56,9.92,2.2,17.97,1.02,19.97-1.18,2-2.04,5.42-7.46,2.58-5.42-2.83-8.28-9.12-9.51-12.8-1.23-3.68-5.19-20.49-6.22-28.98-1.03-8.49-.37-20.17-.23-24.63.14-4.46,2.31-18.19,3.78-33.64,1.47-15.45-5.72-34.84-7.35-39.72-1.63-4.87-15.82-37.79-29.08-53.67-13.26-15.89-18.69-26.45-22.7-36.66-4.01-10.21-3.53-19.26-3.14-21.25.39-1.99,1.57-6.26,3.4-6.99,1.83-.72,34.24-12.11,34.24-12.11"/><path class="cls-7" d="m220.6,147.29c-1.17,3.7-4.5,6.86-6.16,9-1.66,2.14-2.61,3.29-2.18,4.14.43.85.3.59,3.49-.52,3.2-1.11,5.98-2.12,10.98-3.72,5.01-1.6,4.91-1.76,9.45-2.43,4.55-.67,5.63-2.12,8.67-2.49,3.05-.37,4.67.17,5.84-.09,1.17-.25,3.15-.29,1.98-1.15-1.16-.86-6.64-2.38-10.25-4.68-3.61-2.31-10.05-9.19-9.19-17.92.86-8.74,2.63-13.65,7.22-15.18,4.59-1.54,6.72-.57,10.73.99,4.02,1.56,4.19,1.53,5.76.53,1.57-1.01,2.77-3.94,2.43-6.81-.34-2.88-2.13-7.43-10.82-6.84-8.69.6-15.7,3.87-18.47,7.21-2.77,3.34-6.34,6.62-6.78,16.41-.44,9.79-.41,14.7-1.11,16.95-.7,2.25-1.6,6.61-1.6,6.61"/><path class="cls-2" d="m158.76,228.16s4.75-9.49,20.71-10.78c15.96-1.29,21.57-4.75,28.9-3.45,7.33,1.29,30.19,12.51,30.19,12.51,0,0,7.76-1.29,15.96,1.73,8.2,3.02,25.45,20.27,26.75,41.84,1.29,21.57-5.77,96.31-34.94,137.6-16.01,22.67-14.84,22.35-17.25,24.57-2.25,2.06-17.26,7.79-20.71,9.08-3.45,1.29-20.71,3.45-20.71,3.45,0,0-3.45,4.74-15.1,8.62-11.64,3.88-34.51,6.04-40.98,3.88-6.47-2.16-19.41-15.96-19.41-15.96,0,0-17.25,2.16-32.35-8.2-15.1-10.35-37.75-44.5-44-99.21-3.45-30.2-13.38-30.63-9.06-58.66,4.31-28.04,14.67-29.33,18.98-30.2,4.31-.86,15.96-6.04,15.96-6.04,0,0,3.88-7.33,16.83-9.92,12.94-2.59,32.35-10.79,36.66-10.79h18.98l24.59,9.92Z"/><path class="cls-3" d="m70.76,191.5c3.02-4.31,8.19-14.23,12.08-14.67,3.88-.43,10.79.44,15.53,1.73,4.75,1.29,21.14,2.91,25.88,5.55,4.75,2.64,17.26,8.69,22.44,14.29,5.17,5.61,11.64,25.45,11.64,25.45v11.22s3.02-3.02,5.18-3.45c2.16-.43,4.31,3.45,7.33,5.18,3.02,1.72,15.96,4.31,15.96,4.31l-5.61,10.35s-14.24-1.29-19.41,0c-5.18,1.29-18.55,9.92-22.43,9.92s-7.77-4.75-7.77-4.75l-19.41-1.29s1.73-4.31.86-6.47,7.33-.43,7.77-4.74c.43-4.31,3.88-7.33,3.88-7.33,0,0-1.29,4.74,4.09,4.31,5.39-.43,4.1-17.69,4.1-17.69,0,0-.86-14.23-6.47-18.12-5.6-3.88-15.53-7.33-21.57-4.75-6.04,2.59-12.51,6.47-17.69,7.77-5.17,1.29-13.8-1.73-13.8-1.73l-2.59-15.1Z"/><path class="cls-1" d="m185.92,243.05l.7.36c.14-.28.18-.89-.26-1.38-.12-.13-.25-.22-.38-.29l-.06,1.31Zm-.58,1.29c-.5,0-.83-.25-1-.44-.16-.17-.65-.8-.18-1.74l.13-.21c2.33-3.06,5.55-4.94,8.67-6.77.77-.45,1.54-.91,2.31-1.38,4.85-3,10.2-6.04,16.5-8,4.91-1.53,10.16-2.39,13.7-2.84.42-.05.91-.13,1.42-.2,2.72-.41,6.11-.92,8.3.02l-1.09,2.53c-1.47-.63-4.67-.15-6.79.17-.54.08-1.04.16-1.48.21-3.43.44-8.51,1.27-13.23,2.74-6.01,1.87-11.18,4.82-15.87,7.72-.78.48-1.58.95-2.37,1.41-3.02,1.76-5.86,3.43-7.87,6.05l-.58-.44-.04,1.01c.17.01.28-.03.28-.03-.31.13-.58.18-.81.18"/><path class="cls-1" d="m181.94,252.46l.57.16c0-.18-.04-.33-.07-.4l-.5.25Zm45.96,65.1h-2.76c0-1.42.03-2.9.06-4.43.12-5.89.25-12.56-1.45-17.83-.4-1.24-.9-2.39-1.43-3.61-.67-1.55-1.36-3.15-1.83-4.94-.13-.49-.25-.98-.38-1.46-.58-2.33-1.14-4.54-2.31-6.49-3.78-6.29-7.24-10.56-10.88-13.41-4.59-3.61-10.64-5.65-16.49-7.63-3.3-1.11-6.71-2.27-9.82-3.68l-.45-.21-.22-.44c-.3-.62-.22-1.1-.09-1.41.17-.42.5-.72.97-.88-.25.09-.6.37-.72.83l1.31.35.35-.76c2.98,1.36,6.17,2.44,9.55,3.59,6.07,2.05,12.34,4.17,17.31,8.07,3.91,3.07,7.58,7.57,11.54,14.16,1.39,2.31,2.02,4.82,2.63,7.24.12.47.24.95.37,1.43.42,1.59,1.04,3.02,1.7,4.55.53,1.22,1.07,2.49,1.51,3.85,1.85,5.7,1.7,12.62,1.58,18.73-.03,1.5-.06,2.96-.06,4.37"/><path class="cls-1" d="m113.39,254.05c-1.66,0-3.84-1.72-7.19-4.49-1.27-1.05-2.59-2.14-3.21-2.45l-1.41-.72c-3.51-1.83-7.14-3.71-10.83-4.4-6.65-1.25-17.64-2.08-20.64.71l-1.88-2.02c4.97-4.62,21.19-1.75,23.03-1.4,4.08.76,7.9,2.74,11.59,4.66l1.39.72c.88.45,2.19,1.53,3.71,2.78,1.59,1.31,4.56,3.76,5.45,3.85,0,0-.1,0-.25.06l1.09,2.53c-.27.12-.55.17-.85.17"/><path class="cls-1" d="m109.56,441.62c-.86-1.05-1.46-2.2-2.04-3.32-.38-.74-.75-1.45-1.18-2.11-.83-1.28-1.99-2.36-3.21-3.49-1.22-1.13-2.48-2.3-3.47-3.75-2.19-3.19-4.49-7.05-6.17-9.87-1.33-2.23-2.72-4.48-4.06-6.66-1.92-3.11-3.91-6.33-5.76-9.56-2.52-4.38-4.59-9.05-6.61-13.57-2.07-4.65-4.21-9.46-6.81-13.92l2.38-1.39c2.68,4.59,4.85,9.47,6.96,14.19,1.98,4.46,4.03,9.06,6.48,13.32,1.83,3.19,3.81,6.39,5.72,9.48,1.35,2.18,2.75,4.44,4.09,6.7,1.66,2.79,3.94,6.61,6.07,9.72.82,1.2,1.92,2.21,3.08,3.3,1.29,1.2,2.62,2.44,3.64,4.01.5.78.92,1.57,1.32,2.35.54,1.03,1.04,2.01,1.72,2.84l-2.13,1.75Z"/><path class="cls-1" d="m184.85,444.58c-.45-3.12,2.64-6.7,5.38-9.86.84-.98,1.64-1.9,2.11-2.58,2.23-3.23,4.8-6.15,7.27-8.97,1.13-1.29,2.3-2.62,3.41-3.96,4.72-5.65,8.51-11.89,11.61-19.07,7.11-16.52,9.34-29.43,7.45-43.19l2.73-.38c1.96,14.29-.32,27.65-7.65,44.66-3.2,7.43-7.13,13.88-12.02,19.74-1.14,1.37-2.32,2.71-3.46,4.01-2.54,2.9-4.93,5.63-7.08,8.72-.56.8-1.37,1.73-2.3,2.82-1.99,2.3-5.01,5.79-4.74,7.66l-2.73.4Z"/><path class="cls-1" d="m80.5,304.47l-2.67-.69c.8-3.06.89-6.26.99-9.66.09-3.27.19-6.64.97-9.94.93-3.96,1.81-7.7,3.94-11.33,3.28-5.61,7.9-10.27,13.71-13.85,3.74-2.3,10.69-6.58,15.5-4.57l-1.06,2.55c-3.51-1.47-9.91,2.48-13,4.37-5.43,3.34-9.73,7.68-12.78,12.9-1.92,3.28-2.75,6.83-3.63,10.57-.71,3.02-.8,6.26-.89,9.38-.1,3.4-.2,6.91-1.08,10.27"/><path class="cls-5" d="m308.66,169.85s2.03,40.95.71,75.88c-1.32,34.93-8.17,102.13-22.86,143.28-14.68,41.15,16.87,76.39,25.77,85.55,8.9,9.16,89.85,58.03,139.86-8.9,50.02-66.93,31.57-140.53,27.4-158.03-4.17-17.49-50.18-145.51-58.16-162.52-7.97-17-59.46-16.85-61.28-15.97s-51.44,40.71-51.44,40.71"/><path class="cls-6" d="m356.81,7.87s-17.25,11.86-17.08,50.48c.16,38.61-1.17,43.29-4.32,48.84-3.15,5.56-12.43,3.52-19.9,20.58-7.47,17.05-5.41,43.18-9.12,49.46-3.7,6.26-6.95,6.04-11.4,1.46-4.45-4.58-5.86-.53-5.86-.53,0,0,9.15,11.06,15.64,11.51,6.5.46,34.9-8.97,36.77-19.51,1.87-10.54,35.62,16.69,36.92,26.82,1.3,10.13,4.56,15.51,4.56,15.51,0,0,9.89-3.2,7.55-16.42-2.33-13.22-1.15-14.01,1.6-22.74,2.74-8.72,11.92-12.47,12.62-17.07.7-4.59,1.29-20.12,1.29-20.12,0,0,1.95,15.2,18.25,11.83,16.31-3.38,1.66-2.15-5.57-8.31-7.22-6.16-10.2-19.29-12.18-19.69-1.98-.39-13.48-4.71-19.29-14.91-5.81-10.2-23.63-33.67-20.47-64.34l3.15-30.66-13.15-2.17Z"/></svg>