<?xml version="1.0" encoding="UTF-8"?><svg id="Ebene_1" xmlns="http://www.w3.org/2000/svg" viewBox="0 0 512 512"><defs><style>.cls-1{fill:#ff5426;}.cls-2{fill:#f04424;}.cls-3{fill:#ffc71a;}.cls-4{fill:#ffd500;}.cls-5{fill:#efe2dd;}.cls-6{fill:#fbc700;}.cls-7{fill:#cdbfba;}.cls-8{fill:#e1d3ce;}.cls-9{fill:#554e56;}</style></defs><path class="cls-3" d="m248.57,468.84c-5.28-3.45-12.26-5.95-20.1-7.29l19.14-53.38c1.28-3.57-.58-7.51-4.15-8.79-3.57-1.28-7.51.58-8.79,4.15l-20.4,56.9c-12.97.1-24.99,3.15-33.03,8.41-3.18,2.08-4.07,6.34-1.99,9.51s6.34,4.07,9.51,1.99c5.91-3.87,15.68-6.18,26.14-6.18s20.23,2.31,26.14,6.18c1.16.76,2.47,1.12,3.76,1.12,2.24,0,4.44-1.09,5.76-3.11,2.08-3.18,1.19-7.44-1.99-9.51Z"/><path class="cls-1" d="m109.59,134.27c0,14.19-7.67,21.41-17.13,21.41s-17.13-7.22-17.13-21.41,6.88-39.76,16.34-39.76,17.93,25.57,17.93,39.76Z"/><path class="cls-2" d="m91.66,94.51c-.92,0-1.81.25-2.68.7,5.12,8.69,8.71,22.76,8.71,32,0,14.19-7.67,21.41-17.13,21.41-.52,0-1.03-.03-1.53-.07,3.14,4.73,7.98,7.14,13.42,7.14,9.46,0,17.13-7.22,17.13-21.41s-8.46-39.76-17.92-39.76Z"/><path class="cls-1" d="m126.74,20.03c-9.4,0-17.51,5.41-21.45,13.27-3.11-2.19-6.89-3.48-10.98-3.48-10.56,0-19.12,8.56-19.12,19.12,0,.26.03.52.04.78-.48-.04-.97-.07-1.47-.07-9.01,0-16.32,7.31-16.32,16.32s7.31,16.32,16.32,16.32c8.48,0,15.44-6.46,16.24-14.73,1.39.32,2.82.51,4.31.51,6.15,0,11.6-2.91,15.1-7.42,4.37,4.57,10.51,7.42,17.33,7.42,13.26,0,24.01-10.75,24.01-24.01,0-13.26-10.75-24.01-24.01-24.01Z"/><path class="cls-2" d="m126.74,20.03c-2.89,0-5.66.52-8.22,1.45,9.2,3.36,15.77,12.19,15.77,22.56s-6.56,19.19-15.76,22.56c2.56.94,5.33,1.46,8.22,1.46,13.26,0,24.01-10.75,24.01-24.01s-10.75-24.01-24.01-24.01Z"/><path class="cls-4" d="m99.79,111.02h-37.18c-3.98,0-6.48-4.33-4.45-7.76,5.7-8.01,13.19-14.97,25.64-21.16l15.99,28.92Z"/><path class="cls-6" d="m83.8,82.09c-1.4.38-2.73.85-4.02,1.37l4.77,8.62c2.46,4.44-.76,9.89-5.83,9.89h-19.77c-.27.44-.53.86-.78,1.28-2.02,3.43.47,7.76,4.45,7.76h37.18l-15.99-28.92Z"/><path class="cls-5" d="m433.68,193.42h-178c-20.21-5.49-28.37-8.17-35.31-21.23l-34.89-65.68c-15.7-29.55-46.43-48.02-79.89-48.02h-7.17c-7.38,1.44-15.65,7.4-22.79,17.75-1.97,8.74,1.29,17.59,8.06,22.97l19.95,15.87c2.15,1.71,2.97,4.6,2.04,7.19l-10.31,28.6c-13.13,36.44-1.07,63.61,4.41,105.04l13.32,57.87h0c20.39,73.85,91.55,117.62,176.22,117.62,102.01,0,146.75-61.76,146.75-162.32,0-16.28,10.71-24.84,16.9-39.86.36-14.75-4.56-35.81-19.31-35.81h0Z"/><path class="cls-8" d="m433.68,193.42h-14.65c-5.82,12.01-10.54,24.59-12.39,37.2-14.71,100.02-42.26,153.39-146.75,162.32-53.19,4.55-101.39-17.41-134.69-48.78,29.4,55.31,91.84,87.23,164.14,87.23,100.57,0,146.92-63.61,146.75-162.32-.03-16.28,10.71-24.84,16.9-39.86,5.63-13.63-4.56-35.81-19.3-35.81h0Z"/><path class="cls-8" d="m75.34,77.83c-.42,2.71-.34,5.41.18,7.99l.72-2.01c.74-2.05.36-4.29-.9-5.98Z"/><circle class="cls-9" cx="109" cy="85.43" r="7.28"/><path class="cls-3" d="m336.57,469.63c-5.64-3.69-13.22-6.29-21.71-7.56v-60.91c0-3.8-3.08-6.87-6.87-6.87s-6.87,3.08-6.87,6.87v60.07c-12.53.26-24.07,3.29-31.87,8.4-3.18,2.08-4.07,6.34-1.99,9.51,1.32,2.02,3.52,3.11,5.76,3.11,1.29,0,2.6-.36,3.76-1.12,5.91-3.87,15.68-6.18,26.14-6.18s20.23,2.31,26.14,6.18c3.17,2.08,7.43,1.19,9.51-1.99,2.08-3.18,1.19-7.44-1.99-9.51h0Z"/><path class="cls-8" d="m369.19,240.38c-3.21-13.7-15.8-20.11-29.49-23.38h-80.44c-32.68,9.41-61.39,27.49-61.39,61.39s27.49,61.39,61.39,61.39c14.22,0,27.3-4.85,37.7-12.96h0s4.58-3.86,6.57-5.93l56.53-51.18c8.13-7.39,11.63-18.61,9.12-29.32h0Z"/><path class="cls-7" d="m369.19,240.38c-2.09-8.94-7.35-14.21-15.12-18.16.49,1.27.22.63.54,1.98,2.51,10.7-.98,21.92-9.12,29.32l-56.53,51.18c-2,2.08-6.57,5.95-6.57,5.95h0c-10.41,8.1-30.85,14.4-37.7,12.95-13.85-2.95-27.2-4.81-37.59-12.87,10.83,17.43,30.14,29.05,52.17,29.05,14.22,0,27.3-4.85,37.7-12.96h0s4.58-3.86,6.57-5.93l56.53-51.18c8.14-7.39,11.63-18.61,9.12-29.32h0Z"/></svg>